<svg width="62" height="64" viewBox="0 0 62 64" fill="none" xmlns="http://www.w3.org/2000/svg">
<defs>
<linearGradient id="paint0_linear_122_2420" x1="24.3114" y1="53.2158" x2="51.714" y2="24.6858" gradientUnits="userSpaceOnUse">
<stop stop-color="#A4A6B5"/>
<stop offset="1" stop-color="#474747"/>
</linearGradient>
<linearGradient id="paint1_linear_122_2420" x1="15.1392" y1="43.5122" x2="41.49" y2="16.0772" gradientUnits="userSpaceOnUse">
<stop stop-color="#D2D3D4"/>
<stop offset="1" stop-color="#8F8F8F"/>
</linearGradient>
<linearGradient id="paint2_linear_122_2420" x1="23.6274" y1="23.0527" x2="5.73107" y2="5.86357" gradientUnits="userSpaceOnUse">
<stop stop-color="#D2D3D4" stop-opacity="0"/>
<stop offset="1" stop-color="#5C5C5C" stop-opacity="0.7"/>
</linearGradient>
<linearGradient id="paint3_linear_122_2420" x1="55.2728" y1="54.1683" x2="-9.31786" y2="-0.661176" gradientUnits="userSpaceOnUse">
<stop stop-color="white"/>
<stop offset="1" stop-color="#808080"/>
</linearGradient>
</defs>
<path d="M29.4038 31.9515C33.066 32.5353 36.8344 32.5884 40.3374 33.8091C43.8404 35.0299 47.131 37.896 47.4495 41.5582C47.7148 44.6896 45.698 47.768 42.885 49.2541C40.072 50.7403 36.7282 50.7933 33.6498 49.9972C30.5714 49.2011 27.8116 47.6619 25.1047 45.9635C24.4147 45.5389 23.7247 45.1142 22.9286 45.0081C22.1324 44.9019 21.2302 45.2735 20.9648 46.0165C20.6994 46.7596 21.1771 47.5557 21.6017 48.1926C24.0431 51.961 26.5908 55.8355 30.1469 58.6485C35.6137 62.9477 43.3626 64.3276 49.8379 61.78C56.3131 59.2324 60.4531 52.7041 61.4615 45.8573C63.1599 34.6584 54.9863 27.1747 51.3771 24.9455C48.6703 23.3002 32.376 19.7441 27.3339 18.6826C26.007 18.4172 24.6801 18.0988 23.3532 18.3111C21.4955 18.6295 19.8502 19.9564 19.1603 21.7079C16.878 28.0239 24.7331 31.2084 29.4038 31.9515Z" fill="#606060"/>
<path d="M29.4038 31.9515C33.066 32.5353 36.8344 32.5884 40.3374 33.8091C43.8404 35.0299 47.131 37.896 47.4495 41.5582C47.7148 44.6896 45.698 47.768 42.885 49.2541C40.072 50.7403 36.7282 50.7933 33.6498 49.9972C30.5714 49.2011 27.8116 47.6619 25.1047 45.9635C24.4147 45.5389 23.7247 45.1142 22.9286 45.0081C22.1324 44.9019 21.2302 45.2735 20.9648 46.0165C20.6994 46.7596 21.1771 47.5557 21.6017 48.1926C24.0431 51.961 26.5908 55.8355 30.1469 58.6485C35.6137 62.9477 43.3626 64.3276 49.8379 61.78C56.3131 59.2324 60.4531 52.7041 61.4615 45.8573C63.1599 34.6584 54.9863 27.1747 51.3771 24.9455C51.2179 24.8394 48.2987 23.0348 48.0333 22.9286C43.9996 21.1771 32.0576 19.691 27.3339 18.6826C26.007 18.4172 24.6801 18.0988 23.3532 18.3111C21.4955 18.6295 19.8502 19.9564 19.1603 21.7079C16.878 28.0239 24.7331 31.2084 29.4038 31.9515Z" fill="url(#paint0_linear_122_2420)"/>
<path d="M48.0866 22.9287C45.5389 21.3364 30.5716 17.7803 24.9987 16.4534L7.85522 0L0 8.17365L20.4872 27.8116C20.4872 27.8116 24.9455 29.0324 26.6439 29.3508C30.2531 29.9877 33.9684 30.0939 37.4183 31.3677C40.8682 32.6415 44.1589 35.4545 44.5304 39.1167C44.8488 42.1951 42.9381 45.1673 40.1782 46.6004C37.4714 47.9804 34.1277 47.9804 31.1024 47.1842C28.077 46.335 25.317 44.7427 22.6633 43.0974C21.9733 42.6728 21.2833 42.2482 20.5402 42.142C19.7441 42.0359 18.895 42.3543 18.6296 43.0974C18.4173 43.8405 18.8419 44.5835 19.2665 45.2204C21.761 48.9888 24.3086 52.8102 27.8647 55.6232C33.2784 59.9754 40.9213 61.4085 47.2373 59.0732C53.5533 56.6848 57.4809 50.4218 58.3832 43.6812C59.8162 32.6946 51.6957 25.2109 48.0866 22.9287Z" fill="url(#paint1_linear_122_2420)"/>
<path d="M28.2362 19.5849L20.381 27.7585L0 8.17364C0 8.17364 0.58378 4.77681 2.60065 2.75993C5.36058 2.53084e-06 7.85522 0 7.85522 0L28.2362 19.5849Z" fill="url(#paint2_linear_122_2420)"/>
<path d="M54.1903 41.5581C53.3411 47.2903 49.8911 52.704 44.5304 54.827C40.3375 56.4723 35.5076 56.1539 31.4208 54.2432C35.8261 57.1623 41.5583 58.0115 46.3351 56.207C51.5896 54.2432 54.8802 48.9887 55.6233 43.3627C56.2602 38.4797 54.6148 34.3929 52.4918 31.4207C53.8717 34.1806 54.7741 37.5774 54.1903 41.5581Z" fill="url(#paint3_linear_122_2420)"/>
</svg>
