<svg width="36" height="36" viewBox="0 0 36 36" fill="none" xmlns="http://www.w3.org/2000/svg">
<path d="M36 27C36 29.209 34.209 31 32 31H4C1.791 31 0 29.209 0 27V9C0 6.791 1.791 5 4 5H32C34.209 5 36 6.791 36 9V27Z" fill="#DE2910"/>
<path d="M11.1361 8.97709L11.8721 9.33309L12.4611 8.76709L12.3501 9.57709L13.0701 9.96309L12.2661 10.1071L12.1221 10.9111L11.7361 10.1911L10.9261 10.3021L11.4921 9.71309L11.1361 8.97709ZM15.8011 11.9181L15.4451 12.6531L16.0111 13.2431L15.2021 13.1311L14.8161 13.8521L14.6721 13.0471L13.8671 12.9031L14.5881 12.5171L14.4761 11.7081L15.0661 12.2741L15.8011 11.9181ZM14.8441 15.6971L15.1121 16.4691L15.9291 16.4861L15.2781 16.9791L15.5151 17.7621L14.8441 17.2951L14.1731 17.7621L14.4091 16.9791L13.7581 16.4861L14.5751 16.4691L14.8441 15.6971ZM11.1361 18.9771L11.8721 19.3331L12.4611 18.7671L12.3501 19.5771L13.0701 19.9631L12.2661 20.1071L12.1221 20.9111L11.7361 20.1911L10.9261 20.3021L11.4921 19.7131L11.1361 18.9771ZM7.00012 10.9511L7.92912 13.6221L10.7551 13.6801L8.50212 15.3881L9.32112 18.0941L7.00012 16.4791L4.67912 18.0941L5.49812 15.3881L3.24512 13.6801L6.07112 13.6221L7.00012 10.9511Z" fill="#FFDE02"/>
</svg>
