<svg width="86" height="68" viewBox="0 0 86 68" fill="none" xmlns="http://www.w3.org/2000/svg">
<defs>
<linearGradient id="paint0_linear_122_2374" x1="44.3792" y1="66.0834" x2="78.3174" y2="12.9474" gradientUnits="userSpaceOnUse">
<stop offset="0.0598958" stop-color="#B0B5B0"/>
<stop offset="0.9401" stop-color="#E3EAF8"/>
</linearGradient>
<linearGradient id="paint1_linear_122_2374" x1="40.7792" y1="26.6092" x2="79.9899" y2="51.2689" gradientUnits="userSpaceOnUse">
<stop stop-color="#B0B5B0"/>
<stop offset="0.237" stop-color="#AEB2AE" stop-opacity="0.237"/>
<stop offset="1" stop-color="#A6A6A4"/>
</linearGradient>
<radialGradient id="paint2_radial_122_2374" cx="0" cy="0" r="1" gradientUnits="userSpaceOnUse" gradientTransform="translate(67.2485 43.0613) rotate(-57.4335) scale(9.48037)">
<stop stop-color="#383B3D"/>
<stop offset="1" stop-color="#6A6D6D"/>
</radialGradient>
</defs>
<path d="M51.3241 23.6717L43.0443 36.6222L0 0L51.3241 23.6717ZM42.9382 35.8791L50.6341 23.8309L2.97223 1.91072L42.9382 35.8791Z" fill="#BCBEC0"/>
<path d="M58.1178 13.0568L36.3037 47.1844L0.902252 0.583984L58.1178 13.0568ZM36.2506 46.3882L57.3216 13.3752L2.06992 1.32704L36.2506 46.3882Z" fill="#BCBEC0"/>
<path d="M72.1829 9.23521L38.7452 61.5678L1.00847 0.636963L72.1829 9.23521ZM38.7452 60.6655L71.3336 9.60674L1.96383 1.22079L38.7452 60.6655Z" fill="#BCBEC0"/>
<path d="M43.9466 28.077C42.7259 29.9878 40.4436 31.1023 39.5413 33.0661C39.329 33.4908 39.1698 33.9684 38.9575 34.393C38.1614 36.2507 38.6921 38.9045 38.2144 40.7621C37.6837 42.7259 36.0914 43.8936 35.8791 45.7512C35.826 46.1758 35.773 46.6535 35.7199 47.0781C35.5076 49.5196 36.8345 52.651 37.0999 54.8802C37.3652 56.8971 36.516 57.9586 37.1529 59.7101C37.3652 60.2939 37.6306 60.8778 37.896 61.4616C38.9044 62.47 40.0721 63.3723 41.2928 64.1685C53.2348 71.7583 70.4844 66.0792 79.8257 51.3772C89.167 36.6753 87.1502 18.6296 75.2081 11.0398C73.5628 9.97826 71.8644 9.2352 70.0598 8.65137C67.8837 8.81059 66.716 9.92518 64.4869 10.6682C62.3108 11.4113 59.1262 11.7828 57.0032 13.0566C56.7378 13.2159 56.4725 13.3751 56.2071 13.5343C54.721 14.4897 54.4556 16.3473 53.0225 17.5681C51.3241 19.0011 48.405 19.8503 46.8658 21.6549C46.6004 21.9733 46.2819 22.3449 46.0166 22.6633C44.902 24.0964 45.0081 26.4317 43.9466 28.077Z" fill="url(#paint0_linear_122_2374)"/>
<path d="M72.979 43.0973C80.5157 29.51 79.2419 17.5149 69.3168 8.70435C69.1045 8.70435 68.8922 8.75742 68.6268 8.75742C78.7111 17.568 80.038 29.5631 72.3421 43.2035C72.2359 43.2035 72.1828 43.2035 72.0767 43.2035L72.0236 43.7342C72.0236 43.7342 72.0236 43.7342 72.0767 43.7342C72.0236 43.7342 71.9705 43.6812 71.9705 43.6812L71.8113 43.9465C71.7582 43.9465 71.7582 43.9996 71.7052 43.9996L71.7582 44.0527L71.7052 44.1058C71.7582 44.1058 71.7582 44.1588 71.8113 44.1588V44.2119C71.6521 44.4773 71.4929 44.7427 71.3336 45.0081C71.2806 44.9019 71.2275 44.8488 71.1744 44.7427C76.1635 35.6668 69.9006 21.8671 56.844 13.2158C56.6848 13.3219 56.5255 13.4281 56.3663 13.5342C69.2106 21.9732 75.4735 35.4014 70.8559 44.265C68.3083 40.3374 61.4616 30.7838 50.7934 23.9901C49.5196 23.194 48.2988 22.3979 47.025 21.6548C46.9188 21.7609 46.8127 21.9202 46.7065 22.0263C47.9804 22.7694 49.2542 23.5655 50.528 24.4147C61.3554 31.3146 68.2552 41.0805 70.5906 44.7958C70.4844 44.955 70.4313 45.1142 70.3252 45.2734C70.219 45.4327 70.1129 45.5919 70.0067 45.7511C65.6545 45.1673 53.9248 42.9912 43.0974 36.0914C41.8236 35.2952 40.6029 34.446 39.4352 33.6499C39.3821 33.8091 39.276 33.9683 39.2229 34.1276C40.3375 34.9237 41.5582 35.7198 42.832 36.516C53.5002 43.3627 65.0707 45.5388 69.6883 46.2288C63.6377 54.084 48.9357 54.1371 35.9322 46.1757C35.9322 46.388 35.8791 46.5473 35.8791 46.7596C49.148 54.827 64.1684 54.6147 70.2721 46.3349C70.3783 46.3349 70.4844 46.388 70.5906 46.388V46.4411C61.3554 60.6123 49.9442 65.1768 37.3652 59.8692C37.4714 60.0815 37.5245 60.2938 37.6306 60.5061C47.2373 64.3807 59.4447 63.903 70.5375 47.4495C70.219 50.3156 68.8391 55.0924 64.1153 60.4C61.6739 63.1068 58.1178 65.7075 54.8802 67.5652C55.2517 67.5652 55.6763 67.5121 56.0479 67.459C59.0732 65.6014 62.2577 63.2661 64.4869 60.7184C65.7076 59.3385 66.716 58.0116 67.5122 56.7378C70.2721 52.3856 70.9621 48.6703 71.0682 46.5472C71.0682 46.4942 71.1213 46.4942 71.1213 46.4411C71.8644 49.0949 72.3421 52.8632 71.3336 57.1624C70.909 58.9669 70.166 60.8246 69.3698 62.4169C69.6352 62.2046 69.9537 62.0453 70.219 61.833C70.8559 60.4 71.4929 58.8077 71.8113 57.2685C72.8197 53.0225 72.3951 49.3072 71.6521 46.6003C73.2974 47.9803 75.2081 50.0502 76.3758 53.0756C76.6412 53.7655 76.9066 54.6147 77.0658 55.4109C77.225 55.2517 77.3312 55.0924 77.4904 54.9332C77.3312 54.2432 77.1189 53.5532 76.8535 52.9163C75.6858 49.7849 73.722 47.6088 71.9705 46.1757C71.9705 46.1226 71.9705 46.1227 71.9705 46.0696C71.9705 46.0696 71.9175 45.9103 71.7582 45.698C73.5628 46.4411 78.1804 49.148 80.4626 50.6341C80.5688 50.4748 80.6219 50.3687 80.728 50.2095C78.3927 48.7234 73.669 45.9634 71.8644 45.2204C72.0236 44.955 72.1828 44.7427 72.289 44.4773C74.3059 45.5388 77.2781 46.6534 80.9934 46.3349C81.5772 46.2819 82.2141 46.2288 82.798 46.0696C82.9041 45.8573 82.9572 45.698 83.0633 45.4857C82.3734 45.645 81.6834 45.7511 80.9934 45.8042C77.3843 46.0696 74.412 44.955 72.6605 44.0527C72.7667 43.9465 72.9259 43.8935 73.0321 43.7873C75.8981 43.7873 79.5603 42.142 83.3287 39.1697C84.0718 38.5859 84.7618 37.949 85.3987 37.3121C85.4517 36.9936 85.5048 36.7283 85.5048 36.4098C84.7087 37.259 83.9126 38.0552 82.9572 38.7451C79.6134 41.3989 76.3227 42.9381 73.722 43.2035C76.0043 41.452 78.8704 38.639 81.1526 35.0298C81.9487 33.756 82.6918 32.4291 83.3287 30.9961C84.0718 29.2446 84.6556 27.44 85.1333 25.5824C85.0271 25.2109 84.9741 24.8393 84.8679 24.4678C84.4433 26.6439 83.7533 28.7669 82.9041 30.8369C80.3565 36.4098 76.0043 40.8682 72.979 43.0973ZM70.7498 45.4857L70.6967 45.5388H70.5906C70.5906 45.5388 70.5906 45.4857 70.6437 45.4857C70.6437 45.4327 70.6967 45.3796 70.6967 45.3796C70.7498 45.3796 70.7498 45.4327 70.7498 45.4857Z" fill="url(#paint1_linear_122_2374)"/>
<path d="M74.7305 47.7151C72.8198 50.6874 69.9537 52.2266 68.3083 51.1651C66.663 50.1036 66.8753 46.8659 68.786 43.8937C70.6968 40.9215 73.5628 39.3823 75.2082 40.4438C76.8535 41.5053 76.6412 44.7429 74.7305 47.7151Z" fill="url(#paint2_radial_122_2374)"/>
</svg>
