<svg width="81" height="60" viewBox="0 0 81 60" fill="none" xmlns="http://www.w3.org/2000/svg">
<defs>
<linearGradient id="paint0_linear_122_2429" x1="0.0212545" y1="14.775" x2="7.62534" y2="14.775" gradientUnits="userSpaceOnUse">
<stop stop-color="#818177"/>
<stop offset="0.3677" stop-color="#747263"/>
<stop offset="1" stop-color="#615A45"/>
</linearGradient>
<linearGradient id="paint1_linear_122_2429" x1="24.2853" y1="32.6959" x2="79.1382" y2="32.6959" gradientUnits="userSpaceOnUse">
<stop stop-color="#818177"/>
<stop offset="0.2185" stop-color="#787669"/>
<stop offset="0.7087" stop-color="#67624F"/>
<stop offset="1" stop-color="#615A45"/>
</linearGradient>
<linearGradient id="paint2_linear_122_2429" x1="0.0212544" y1="36.3467" x2="54.8742" y2="36.3467" gradientUnits="userSpaceOnUse">
<stop stop-color="#8B836D"/>
<stop offset="0.1545" stop-color="#98917B"/>
<stop offset="0.4341" stop-color="#A9A48F"/>
<stop offset="0.7157" stop-color="#B4AF9B"/>
<stop offset="1" stop-color="#B7B39F"/>
</linearGradient>
<linearGradient id="paint3_linear_122_2429" x1="64.2569" y1="38.9418" x2="71.0205" y2="50.6566" gradientUnits="userSpaceOnUse">
<stop stop-color="#818177"/>
<stop offset="0.3677" stop-color="#747263"/>
<stop offset="1" stop-color="#615A45"/>
</linearGradient>
<linearGradient id="paint4_linear_122_2429" x1="66.2683" y1="39.2359" x2="74.069" y2="39.2359" gradientUnits="userSpaceOnUse">
<stop stop-color="#818177"/>
<stop offset="0.2185" stop-color="#787669"/>
<stop offset="0.7087" stop-color="#67624F"/>
<stop offset="1" stop-color="#615A45"/>
</linearGradient>
<linearGradient id="paint5_linear_122_2429" x1="4.68814" y1="4.87518" x2="12.4889" y2="4.87518" gradientUnits="userSpaceOnUse">
<stop stop-color="#818177"/>
<stop offset="0.2185" stop-color="#787669"/>
<stop offset="0.7087" stop-color="#67624F"/>
<stop offset="1" stop-color="#615A45"/>
</linearGradient>
</defs>
<path d="M0 4.88452V20.4183L7.39286 24.6868L7.61289 8.97699L0 4.88452Z" fill="url(#paint0_linear_122_2429)"/>
<path d="M24.2908 5.98486V21.5186L67.6357 46.6015V56.7666L70.188 59.4069L70.584 59.0989L79.121 53.7303V37.7125L24.2908 5.98486Z" fill="url(#paint1_linear_122_2429)"/>
<path d="M4.4005 24.2028L0 12.7175L25.4349 0.528076L80.3972 29.6154L78.3289 37.8003L48.7576 52.41L4.4005 24.2028Z" fill="#A4A89C"/>
<path d="M54.8743 59.9787L0 28.2511V12.7173L54.8743 44.4449V59.9787Z" fill="url(#paint2_linear_122_2429)"/>
<path d="M54.8743 59.9789L80.3972 44.0931V29.6155L54.8743 44.4452V59.9789Z" fill="url(#paint3_linear_122_2429)"/>
<path d="M62.7952 39.6045V55.1383L70.188 59.4067V43.873L62.7952 39.6045Z" fill="#968D7E"/>
<path d="M79.121 38.9884L8.97703 0L0 4.88456L70.188 43.873L79.121 38.9884Z" fill="#A4A89C"/>
<path d="M8.27293 14.7417C9.94986 14.7417 11.3093 14.0522 11.3093 13.2016C11.3093 12.3509 9.94986 11.6614 8.27293 11.6614C6.596 11.6614 5.23657 12.3509 5.23657 13.2016C5.23657 14.0522 6.596 14.7417 8.27293 14.7417Z" fill="#3A3E38"/>
<path d="M14.3457 18.3501C16.0226 18.3501 17.382 17.6606 17.382 16.81C17.382 15.9593 16.0226 15.2698 14.3457 15.2698C12.6688 15.2698 11.3093 15.9593 11.3093 16.81C11.3093 17.6606 12.6688 18.3501 14.3457 18.3501Z" fill="#3A3E38"/>
<path d="M20.4183 21.9588C22.0952 21.9588 23.4547 21.2692 23.4547 20.4186C23.4547 19.568 22.0952 18.8784 20.4183 18.8784C18.7414 18.8784 17.382 19.568 17.382 20.4186C17.382 21.2692 18.7414 21.9588 20.4183 21.9588Z" fill="#3A3E38"/>
<path d="M26.535 25.5672C28.2119 25.5672 29.5713 24.8776 29.5713 24.027C29.5713 23.1764 28.2119 22.4868 26.535 22.4868C24.8581 22.4868 23.4987 23.1764 23.4987 24.027C23.4987 24.8776 24.8581 25.5672 26.535 25.5672Z" fill="#3A3E38"/>
<path d="M32.6078 29.1753C34.2847 29.1753 35.6441 28.4858 35.6441 27.6351C35.6441 26.7845 34.2847 26.095 32.6078 26.095C30.9308 26.095 29.5714 26.7845 29.5714 27.6351C29.5714 28.4858 30.9308 29.1753 32.6078 29.1753Z" fill="#3A3E38"/>
<path d="M38.7244 32.7837C40.4014 32.7837 41.7608 32.0942 41.7608 31.2435C41.7608 30.3929 40.4014 29.7034 38.7244 29.7034C37.0475 29.7034 35.6881 30.3929 35.6881 31.2435C35.6881 32.0942 37.0475 32.7837 38.7244 32.7837Z" fill="#3A3E38"/>
<path d="M44.7971 36.3924C46.474 36.3924 47.8334 35.7028 47.8334 34.8522C47.8334 34.0016 46.474 33.312 44.7971 33.312C43.1202 33.312 41.7607 34.0016 41.7607 34.8522C41.7607 35.7028 43.1202 36.3924 44.7971 36.3924Z" fill="#3A3E38"/>
<path d="M50.9138 39.9563C52.5907 39.9563 53.9501 39.2668 53.9501 38.4162C53.9501 37.5655 52.5907 36.876 50.9138 36.876C49.2368 36.876 47.8774 37.5655 47.8774 38.4162C47.8774 39.2668 49.2368 39.9563 50.9138 39.9563Z" fill="#3A3E38"/>
<path d="M15.9739 14.4776C17.6508 14.4776 19.0102 13.788 19.0102 12.9374C19.0102 12.0868 17.6508 11.3972 15.9739 11.3972C14.2969 11.3972 12.9375 12.0868 12.9375 12.9374C12.9375 13.788 14.2969 14.4776 15.9739 14.4776Z" fill="#3A3E38"/>
<path d="M22.0905 18.0862C23.7675 18.0862 25.1269 17.3966 25.1269 16.546C25.1269 15.6954 23.7675 15.0059 22.0905 15.0059C20.4136 15.0059 19.0542 15.6954 19.0542 16.546C19.0542 17.3966 20.4136 18.0862 22.0905 18.0862Z" fill="#3A3E38"/>
<path d="M28.1632 21.6946C29.8401 21.6946 31.1995 21.005 31.1995 20.1544C31.1995 19.3038 29.8401 18.6143 28.1632 18.6143C26.4862 18.6143 25.1268 19.3038 25.1268 20.1544C25.1268 21.005 26.4862 21.6946 28.1632 21.6946Z" fill="#3A3E38"/>
<path d="M34.2799 25.3028C35.9568 25.3028 37.3162 24.6132 37.3162 23.7626C37.3162 22.912 35.9568 22.2224 34.2799 22.2224C32.603 22.2224 31.2435 22.912 31.2435 23.7626C31.2435 24.6132 32.603 25.3028 34.2799 25.3028Z" fill="#3A3E38"/>
<path d="M40.3526 28.9114C42.0295 28.9114 43.389 28.2218 43.389 27.3712C43.389 26.5206 42.0295 25.8311 40.3526 25.8311C38.6757 25.8311 37.3163 26.5206 37.3163 27.3712C37.3163 28.2218 38.6757 28.9114 40.3526 28.9114Z" fill="#3A3E38"/>
<path d="M46.4693 32.5198C48.1463 32.5198 49.5057 31.8302 49.5057 30.9796C49.5057 30.129 48.1463 29.4395 46.4693 29.4395C44.7924 29.4395 43.433 30.129 43.433 30.9796C43.433 31.8302 44.7924 32.5198 46.4693 32.5198Z" fill="#3A3E38"/>
<path d="M52.542 36.1282C54.2189 36.1282 55.5783 35.4386 55.5783 34.588C55.5783 33.7374 54.2189 33.0479 52.542 33.0479C50.865 33.0479 49.5056 33.7374 49.5056 34.588C49.5056 35.4386 50.865 36.1282 52.542 36.1282Z" fill="#3A3E38"/>
<path d="M58.6587 39.7366C60.3356 39.7366 61.695 39.047 61.695 38.1964C61.695 37.3458 60.3356 36.6562 58.6587 36.6562C56.9817 36.6562 55.6223 37.3458 55.6223 38.1964C55.6223 39.047 56.9817 39.7366 58.6587 39.7366Z" fill="#3A3E38"/>
<path d="M70.188 39.1206C68.5598 39.1206 67.1517 38.5925 66.5796 37.8884C66.4036 38.1085 66.3156 38.3725 66.3156 38.6365C66.3156 39.7366 68.0758 40.6167 70.232 40.6167C72.3883 40.6167 74.1484 39.7366 74.1484 38.6365C74.1484 38.3725 74.0604 38.1085 73.8844 37.8884C73.2243 38.5925 71.8162 39.1206 70.188 39.1206Z" fill="url(#paint4_linear_122_2429)"/>
<path d="M8.58099 4.75241C6.95281 4.75241 5.54467 4.22434 4.9726 3.52026C4.79658 3.74029 4.70856 4.00432 4.70856 4.26835C4.70856 5.36848 6.46877 6.24858 8.62501 6.24858C10.7813 6.24858 12.5414 5.36848 12.5414 4.26835C12.5414 4.00432 12.4534 3.74029 12.2774 3.52026C11.6173 4.26835 10.2092 4.75241 8.58099 4.75241Z" fill="url(#paint5_linear_122_2429)"/>
<path d="M25.831 4.88468C27.5565 4.88468 28.9554 4.21482 28.9554 3.38851C28.9554 2.5622 27.5565 1.89233 25.831 1.89233C24.1055 1.89233 22.7067 2.5622 22.7067 3.38851C22.7067 4.21482 24.1055 4.88468 25.831 4.88468Z" fill="#3A3E38"/>
<path d="M32.0797 8.31705C33.8052 8.31705 35.204 7.64719 35.204 6.82087C35.204 5.99456 33.8052 5.32471 32.0797 5.32471C30.3541 5.32471 28.9553 5.99456 28.9553 6.82087C28.9553 7.64719 30.3541 8.31705 32.0797 8.31705Z" fill="#3A3E38"/>
<path d="M38.3285 11.7934C40.054 11.7934 41.4528 11.1235 41.4528 10.2972C41.4528 9.47089 40.054 8.80103 38.3285 8.80103C36.6029 8.80103 35.2041 9.47089 35.2041 10.2972C35.2041 11.1235 36.6029 11.7934 38.3285 11.7934Z" fill="#3A3E38"/>
<path d="M44.5771 15.2702C46.3027 15.2702 47.7015 14.6003 47.7015 13.774C47.7015 12.9477 46.3027 12.2778 44.5771 12.2778C42.8516 12.2778 41.4528 12.9477 41.4528 13.774C41.4528 14.6003 42.8516 15.2702 44.5771 15.2702Z" fill="#3A3E38"/>
<path d="M50.8259 18.7462C52.5514 18.7462 53.9503 18.0764 53.9503 17.2501C53.9503 16.4238 52.5514 15.7539 50.8259 15.7539C49.1003 15.7539 47.7015 16.4238 47.7015 17.2501C47.7015 18.0764 49.1003 18.7462 50.8259 18.7462Z" fill="#3A3E38"/>
<path d="M57.0745 22.1786C58.8001 22.1786 60.1989 21.5088 60.1989 20.6824C60.1989 19.8561 58.8001 19.1863 57.0745 19.1863C55.349 19.1863 53.9502 19.8561 53.9502 20.6824C53.9502 21.5088 55.349 22.1786 57.0745 22.1786Z" fill="#3A3E38"/>
<path d="M63.3232 25.6549C65.0487 25.6549 66.4475 24.9851 66.4475 24.1588C66.4475 23.3325 65.0487 22.6626 63.3232 22.6626C61.5977 22.6626 60.1989 23.3325 60.1989 24.1588C60.1989 24.9851 61.5977 25.6549 63.3232 25.6549Z" fill="#3A3E38"/>
<path d="M69.5279 29.1315C71.2534 29.1315 72.6523 28.4616 72.6523 27.6353C72.6523 26.809 71.2534 26.1392 69.5279 26.1392C67.8024 26.1392 66.4036 26.809 66.4036 27.6353C66.4036 28.4616 67.8024 29.1315 69.5279 29.1315Z" fill="#3A3E38"/>
<path d="M24.5988 8.75699C26.3244 8.75699 27.7232 8.08713 27.7232 7.26082C27.7232 6.4345 26.3244 5.76465 24.5988 5.76465C22.8733 5.76465 21.4745 6.4345 21.4745 7.26082C21.4745 8.08713 22.8733 8.75699 24.5988 8.75699Z" fill="#3A3E38"/>
<path d="M30.8476 12.2336C32.5732 12.2336 33.972 11.5637 33.972 10.7374C33.972 9.91107 32.5732 9.24121 30.8476 9.24121C29.1221 9.24121 27.7233 9.91107 27.7233 10.7374C27.7233 11.5637 29.1221 12.2336 30.8476 12.2336Z" fill="#3A3E38"/>
<path d="M37.0963 15.7101C38.8218 15.7101 40.2206 15.0403 40.2206 14.2139C40.2206 13.3876 38.8218 12.7178 37.0963 12.7178C35.3708 12.7178 33.9719 13.3876 33.9719 14.2139C33.9719 15.0403 35.3708 15.7101 37.0963 15.7101Z" fill="#3A3E38"/>
<path d="M43.3449 19.1425C45.0705 19.1425 46.4693 18.4726 46.4693 17.6463C46.4693 16.82 45.0705 16.1501 43.3449 16.1501C41.6194 16.1501 40.2206 16.82 40.2206 17.6463C40.2206 18.4726 41.6194 19.1425 43.3449 19.1425Z" fill="#3A3E38"/>
<path d="M49.5937 22.6188C51.3192 22.6188 52.7181 21.9489 52.7181 21.1226C52.7181 20.2963 51.3192 19.6265 49.5937 19.6265C47.8682 19.6265 46.4694 20.2963 46.4694 21.1226C46.4694 21.9489 47.8682 22.6188 49.5937 22.6188Z" fill="#3A3E38"/>
<path d="M55.8424 26.0951C57.5679 26.0951 58.9667 25.4253 58.9667 24.599C58.9667 23.7726 57.5679 23.1028 55.8424 23.1028C54.1168 23.1028 52.718 23.7726 52.718 24.599C52.718 25.4253 54.1168 26.0951 55.8424 26.0951Z" fill="#3A3E38"/>
<path d="M62.0471 29.5275C63.7726 29.5275 65.1714 28.8576 65.1714 28.0313C65.1714 27.205 63.7726 26.5352 62.0471 26.5352C60.3215 26.5352 58.9227 27.205 58.9227 28.0313C58.9227 28.8576 60.3215 29.5275 62.0471 29.5275Z" fill="#3A3E38"/>
<path d="M68.2959 33.0041C70.0214 33.0041 71.4202 32.3342 71.4202 31.5079C71.4202 30.6816 70.0214 30.0117 68.2959 30.0117C66.5703 30.0117 65.1715 30.6816 65.1715 31.5079C65.1715 32.3342 66.5703 33.0041 68.2959 33.0041Z" fill="#3A3E38"/>
</svg>
