<svg width="36" height="36" viewBox="0 0 36 36" fill="none" xmlns="http://www.w3.org/2000/svg">
<path d="M20.666 19L20.199 19.809H21.133L20.666 19ZM18 21.618L18.467 20.809H17.533L18 21.618Z" fill="#EDECEC"/>
<path d="M0 25H36V11H0V25ZM0.294 7.5H35.707C35.113 6.035 33.678 5 32 5H4C2.322 5 0.887 6.035 0.294 7.5Z" fill="#EEEEEE"/>
<path d="M21.1329 16.1911H20.1989L20.6659 17.0001L21.1329 16.1911ZM15.8009 16.1911H14.8669L15.3339 17.0001L15.8009 16.1911ZM19.0439 19.8091L20.0889 18.0001L19.0439 16.1911H16.9559L15.9109 18.0001L16.9559 19.8091H19.0439ZM15.3339 19.0001L14.8669 19.8091H15.8009L15.3339 19.0001ZM17.9999 14.3821L17.5329 15.1911H18.4669L17.9999 14.3821Z" fill="#EDECEC"/>
<path d="M0.294 7.5C0.106 7.964 0 8.469 0 9V11H36V9C36 8.469 35.894 7.964 35.706 7.5H0.294Z" fill="#0038B8"/>
<path d="M0.293945 28.5H35.7069C35.1129 29.965 33.6779 31 31.9999 31H3.99995C2.32195 31 0.886945 29.965 0.293945 28.5Z" fill="#EEEEEE"/>
<path d="M0.294 28.5001C0.106 28.0361 0 27.5311 0 27.0001V25.0001H36V27.0001C36 27.5311 35.894 28.0361 35.706 28.5001H0.294ZM16.378 20.8091L18 23.6181L19.622 20.8091H22.865L21.244 18.0001L22.866 15.1911H19.623L18 12.3821L16.378 15.1911H13.135L14.756 18.0001L13.134 20.8091H16.378ZM18 21.6181L17.533 20.8091H18.467L18 21.6181ZM21.133 16.1911L20.666 17.0001L20.199 16.1921H21.133V16.1911ZM20.666 19.0001L21.133 19.8081H20.199L20.666 19.0001ZM18 14.3821L18.467 15.1911H17.533L18 14.3821ZM16.956 16.1911H19.045L20.089 18.0001L19.045 19.8091H16.956L15.911 18.0001L16.956 16.1911ZM15.801 16.1911L15.334 17.0001L14.867 16.1921H15.801V16.1911ZM15.334 19.0001L15.801 19.8081H14.867L15.334 19.0001Z" fill="#0038B8"/>
</svg>
