<svg width="48" height="82" viewBox="0 0 48 82" fill="none" xmlns="http://www.w3.org/2000/svg">
<defs>
<linearGradient id="paint0_linear_122_2376" x1="23.8113" y1="52.7371" x2="23.8113" y2="80.7591" gradientUnits="userSpaceOnUse">
<stop stop-color="#ED1C24"/>
<stop offset="0.3786" stop-color="#E60E3F"/>
<stop offset="0.7461" stop-color="#E10452"/>
<stop offset="1" stop-color="#DF0059"/>
</linearGradient>
</defs>
<path d="M2.12302 9.12949V3.0258C2.12302 2.54812 2.54764 2.12351 3.02532 2.12351H9.12901V0.000488281H3.02532C1.3269 0.000488281 0 1.38045 0 3.0258V9.12949H2.12302Z" fill="#ED1C24"/>
<path d="M38.4798 2.12302H44.5835C45.0612 2.12302 45.4858 2.54763 45.4858 3.02531V9.129H47.6088V3.02531C47.6088 1.32689 46.2288 0 44.5835 0H38.4798V2.12302Z" fill="#ED1C24"/>
<path d="M9.12901 45.4857H3.02532C2.54764 45.4857 2.12302 45.0611 2.12302 44.5834V38.4797H0V44.5834C0 46.2818 1.37997 47.6087 3.02532 47.6087H9.12901V45.4857Z" fill="#ED1C24"/>
<path d="M45.4858 38.4797V44.5834C45.4858 45.0611 45.0612 45.4857 44.5835 45.4857H38.4798V47.6087H44.5835C46.2819 47.6087 47.6088 46.2288 47.6088 44.5834V38.4797H45.4858Z" fill="#ED1C24"/>
<path d="M25.3171 33.4907C25.3701 30.6246 25.4763 27.2808 25.4763 24.6271L36.2506 34.7114V31.1023L25.3702 12.7912C25.264 8.17362 25.1048 3.71527 25.1048 3.71527H24.9986H24.0433L23.7779 2.81299L23.5125 3.71527H22.5571H22.451C22.451 3.71527 22.2918 8.17362 22.1856 12.7912L11.3051 31.1023V34.7114L22.0795 24.6271C22.1325 27.2278 22.1856 30.6246 22.2387 33.4907L18.1518 39.9659V43.0443L22.3979 40.2313V39.5944H22.5041H23.7779H25.0517H25.1578V40.2313L29.4039 43.0443V39.9659L25.3171 33.4907Z" fill="#606060"/>
<path d="M45.5389 53.2878H2.07001C0.955417 53.2878 0.106201 54.1901 0.106201 55.2516V79.2418C0.106201 80.3564 1.00849 81.2056 2.07001 81.2056H45.4858C46.6004 81.2056 47.4496 80.3033 47.4496 79.2418V55.2516C47.5027 54.137 46.6005 53.2878 45.5389 53.2878Z" fill="url(#paint0_linear_122_2376)"/>
<path d="M22.0264 59.0201L14.0651 72.7667C13.2689 74.1466 14.2774 75.845 15.8166 75.845H31.6862C33.2784 75.845 34.2338 74.1466 33.4377 72.7667L25.4763 59.0201C24.7863 57.6401 22.8225 57.6401 22.0264 59.0201Z" fill="#ED1C24"/>
<path d="M32.96 76.3758H14.702C14.012 76.3758 13.4282 76.0042 13.0567 75.4204C12.7382 74.8366 12.7382 74.1466 13.0567 73.5097L22.1857 57.6932C22.5041 57.1093 23.141 56.7378 23.831 56.7378C24.521 56.7378 25.1048 57.1093 25.4763 57.6932L34.6053 73.5097C34.9238 74.0935 34.9238 74.7835 34.6053 75.4204C34.2338 76.0042 33.65 76.3758 32.96 76.3758ZM23.0879 58.277L13.9589 74.0935C13.7997 74.3589 13.7997 74.6774 13.9589 74.9427C14.1182 75.2081 14.3835 75.3673 14.702 75.3673H32.96C33.2785 75.3673 33.5438 75.2081 33.703 74.9427C33.8623 74.6774 33.8623 74.3589 33.703 74.0935L24.5741 58.277C24.4148 58.0116 24.1494 57.8524 23.831 57.8524C23.5125 57.8524 23.2471 58.0116 23.0879 58.277Z" fill="white"/>
<path d="M22.7164 71.7052C22.7164 71.4399 22.8225 71.1745 23.0348 71.0153C23.2471 70.856 23.5125 70.7499 23.8309 70.7499C24.1494 70.7499 24.4148 70.856 24.6271 71.0153C24.8394 71.1745 24.9455 71.4399 24.9455 71.7052C24.9455 71.9706 24.8394 72.236 24.6271 72.3952C24.4148 72.5545 24.1494 72.6606 23.8309 72.6606C23.5125 72.6606 23.2471 72.5545 23.0348 72.3952C22.8225 72.236 22.7164 71.9706 22.7164 71.7052ZM24.6271 69.8476H23.0348L22.7694 64.0093H24.8925L24.6271 69.8476Z" fill="white"/>
</svg>
